<svg width="20" height="20" viewBox="0 0 20 20" fill="none" xmlns="http://www.w3.org/2000/svg">
<path d="M7.27501 19.1417H8.10835C8.90835 19.1417 9.56668 18.4833 9.56668 17.6833V2.68332C9.56668 2.63332 9.56668 2.59165 9.56668 2.54999V2.53332C9.56668 2.48332 9.55001 2.43332 9.55001 2.40832C9.41668 1.49999 8.64168 0.799988 7.70001 0.799988C6.84168 0.799988 6.14168 1.39999 5.92501 2.19165C5.80001 2.17499 5.68335 2.13332 5.55001 2.13332C4.15001 2.13332 3.00001 3.21665 2.86668 4.58332C1.66668 5.20832 0.825012 6.44165 0.825012 7.88332C0.825012 9.01665 1.35001 10.0167 2.15001 10.7C1.98335 11.1167 1.86668 11.5667 1.86668 12.05C1.86668 13.7167 2.96668 15.125 4.47501 15.6083C4.43335 15.8083 4.36668 16 4.36668 16.2167C4.36668 17.775 5.60001 19.05 7.14168 19.125H7.15835C7.15835 19.125 7.23335 19.125 7.28335 19.125L7.27501 19.1417ZM11.8583 19.1417H12.6917C12.7417 19.1417 12.7833 19.1417 12.8167 19.1417H12.8333C14.375 19.0667 15.6083 17.7917 15.6083 16.2333C15.6083 16.0167 15.5417 15.825 15.5 15.625C17.0083 15.1417 18.1083 13.7333 18.1083 12.0667C18.1083 11.5833 17.9917 11.1417 17.825 10.7167C18.625 10.0333 19.15 9.03332 19.15 7.89999C19.15 6.45832 18.3083 5.22499 17.1083 4.59999C16.975 3.23332 15.825 2.14999 14.425 2.14999C14.2917 2.14999 14.175 2.19165 14.05 2.20832C13.8333 1.41665 13.1333 0.816654 12.275 0.816654C11.3333 0.816654 10.5583 1.51665 10.425 2.42499C10.425 2.44999 10.4083 2.49999 10.4083 2.54999V2.56665C10.4083 2.56665 10.4083 2.64165 10.4083 2.69999V17.7C10.4083 18.5 11.0667 19.1583 11.8667 19.1583L11.8583 19.1417Z" fill="white"/>
</svg>
