<svg xmlns="http://www.w3.org/2000/svg" xmlns:xlink="http://www.w3.org/1999/xlink" width="364.608" height="40" viewBox="0 0 364.608 40">
  <defs>
    <clipPath id="clip-path">
      <path id="パス_126" data-name="パス 126" d="M68.259-52v28H65.68V-45.811L35.655-16H32ZM64.23-42.335v3.617L43.927-18.56h28.36V-16H37.706ZM72.287-56v36H47.428l2.578-2.56h19.7V-53.44Z" fill="none" clip-rule="evenodd"/>
    </clipPath>
    <clipPath id="clip-path-2">
      <path id="パス_125" data-name="パス 125" d="M0,1448H1280V-152H0Z" fill="none"/>
    </clipPath>
    <clipPath id="clip-path-3">
      <path id="パス_129" data-name="パス 129" d="M190.011-44.667c6.487,0,9.968,4.691,9.968,11.2,0,6.476-3.541,11.136-9.968,11.136-6.4,0-9.968-4.66-9.968-11.136C180.042-39.976,183.554-44.667,190.011-44.667Zm22.2,0a18.2,18.2,0,0,1,5.565.787h0l-.744,3.541a13.479,13.479,0,0,0-4.553-.787c-1.726,0-3.392.514-3.392,2.3,0,1.513,1.22,2.27,4.017,3.42,3.512,1.483,5.892,2.935,5.892,6.718,0,4.327-3.69,6.355-7.856,6.355a19.936,19.936,0,0,1-6.458-1.089h0l.774-3.6A15.33,15.33,0,0,0,211-25.874c2.351,0,3.66-.847,3.66-2.512,0-1.6-1.28-2.421-4.166-3.571-3.392-1.392-5.743-3.117-5.743-6.446C204.746-42.881,208.615-44.667,212.215-44.667Zm-111.394,0,7.709,21.814H103.8l-1.927-5.316H93.594l-1.867,5.316H87.059L94.8-44.667Zm17.626,0v21.814h-4.6V-44.667Zm21.215,0v3.575H134.2v18.239h-4.289V-41.092h-5.582v-3.575Zm14.424,0c3.856,0,7.471,1.466,7.471,5.927a4.979,4.979,0,0,1-3.412,4.986l-.234.085v.061c1.356.489,1.958,1.314,2.711,3.941.53,1.858,1.041,3.6,1.579,5.424l.409,1.389h-4.729l-.066-.264-.146-.584-.1-.395h0l-.21-.836h0l-.108-.431-.139-.554c-.255-1.013-.5-1.992-.677-2.65-.644-2.285-1.145-3.043-3.99-3.084l-.257,0h-2.048v8.8h-4.4V-44.667Zm19.771,0v21.814h-4.6V-44.667Zm16.154,3.541c-3.868,0-5.624,3.42-5.624,7.656,0,4.206,1.785,7.6,5.654,7.6,3.9,0,5.594-3.389,5.594-7.6C195.635-37.706,193.879-41.126,190.011-41.126Zm-92.262-.058-3.132,9.41h6.233Zm55.4.092h-3.012v5.866h2.892c2.41,0,4.127-.672,4.127-2.933C157.158-40.6,155.14-41.092,153.151-41.092Z" fill="none"/>
    </clipPath>
    <clipPath id="clip-path-5">
      <path id="パス_131" data-name="パス 131" d="M243-16h1V-56h-1Z" fill="none"/>
    </clipPath>
  </defs>
  <g id="Console_title_logo" transform="translate(-12882 2043)">
    <g id="グループ_951" data-name="グループ 951" transform="translate(12850 -1987)" clip-path="url(#clip-path)">
      <g id="グループ_950" data-name="グループ 950" clip-path="url(#clip-path-2)">
        <path id="パス_124" data-name="パス 124" d="M31-57H73.287v42H31Z" fill="#fff"/>
      </g>
    </g>
    <g id="グループ_953" data-name="グループ 953" transform="translate(12850 -1987)" clip-path="url(#clip-path-3)">
      <g id="グループ_952" data-name="グループ 952" clip-path="url(#clip-path-2)">
        <path id="パス_127" data-name="パス 127" d="M86.059-45.667H220v24.333H86.059Z" fill="#fff"/>
      </g>
    </g>
  </g>
</svg>
