<svg xmlns="http://www.w3.org/2000/svg" xmlns:xlink="http://www.w3.org/1999/xlink" width="364.608" height="40" viewBox="0 0 364.608 40">
  <defs>
    <clipPath id="clip-path">
      <path id="パス_126" data-name="パス 126" d="M68.259-52v28H65.68V-45.811L35.655-16H32ZM64.23-42.335v3.617L43.927-18.56h28.36V-16H37.706ZM72.287-56v36H47.428l2.578-2.56h19.7V-53.44Z" fill="none" clip-rule="evenodd"/>
    </clipPath>
    <clipPath id="clip-path-2">
      <path id="パス_125" data-name="パス 125" d="M0,1448H1280V-152H0Z" fill="none"/>
    </clipPath>
    <clipPath id="clip-path-3">
      <path id="パス_129" data-name="パス 129" d="M190.011-44.667c6.487,0,9.968,4.691,9.968,11.2,0,6.476-3.541,11.136-9.968,11.136-6.4,0-9.968-4.66-9.968-11.136C180.042-39.976,183.554-44.667,190.011-44.667Zm22.2,0a18.2,18.2,0,0,1,5.565.787h0l-.744,3.541a13.479,13.479,0,0,0-4.553-.787c-1.726,0-3.392.514-3.392,2.3,0,1.513,1.22,2.27,4.017,3.42,3.512,1.483,5.892,2.935,5.892,6.718,0,4.327-3.69,6.355-7.856,6.355a19.936,19.936,0,0,1-6.458-1.089h0l.774-3.6A15.33,15.33,0,0,0,211-25.874c2.351,0,3.66-.847,3.66-2.512,0-1.6-1.28-2.421-4.166-3.571-3.392-1.392-5.743-3.117-5.743-6.446C204.746-42.881,208.615-44.667,212.215-44.667Zm-111.394,0,7.709,21.814H103.8l-1.927-5.316H93.594l-1.867,5.316H87.059L94.8-44.667Zm17.626,0v21.814h-4.6V-44.667Zm21.215,0v3.575H134.2v18.239h-4.289V-41.092h-5.582v-3.575Zm14.424,0c3.856,0,7.471,1.466,7.471,5.927a4.979,4.979,0,0,1-3.412,4.986l-.234.085v.061c1.356.489,1.958,1.314,2.711,3.941.53,1.858,1.041,3.6,1.579,5.424l.409,1.389h-4.729l-.066-.264-.146-.584-.1-.395h0l-.21-.836h0l-.108-.431-.139-.554c-.255-1.013-.5-1.992-.677-2.65-.644-2.285-1.145-3.043-3.99-3.084l-.257,0h-2.048v8.8h-4.4V-44.667Zm19.771,0v21.814h-4.6V-44.667Zm16.154,3.541c-3.868,0-5.624,3.42-5.624,7.656,0,4.206,1.785,7.6,5.654,7.6,3.9,0,5.594-3.389,5.594-7.6C195.635-37.706,193.879-41.126,190.011-41.126Zm-92.262-.058-3.132,9.41h6.233Zm55.4.092h-3.012v5.866h2.892c2.41,0,4.127-.672,4.127-2.933C157.158-40.6,155.14-41.092,153.151-41.092Z" fill="none"/>
    </clipPath>
    <clipPath id="clip-path-5">
      <path id="パス_131" data-name="パス 131" d="M243-16h1V-56h-1Z" fill="none"/>
    </clipPath>
  </defs>
  <g id="Console_title_logo" transform="translate(-12882 2043)">
    <g id="グループ_954" data-name="グループ 954" transform="translate(12850 -1987)" clip-path="url(#clip-path-5)">
      <path id="パス_130" data-name="パス 130" d="M242-57h3v42h-3Z" fill="#787d8d"/>
    </g>
    <path id="パス_550" data-name="パス 550" d="M18.464-22.24a12.8,12.8,0,0,0-5.312-.992c-7.3,0-11.424,4.992-11.424,11.872S6.048.384,12.992.384a13.082,13.082,0,0,0,5.664-1.12l-.8-2.912a9.69,9.69,0,0,1-4.512.992c-5.216,0-7.872-4.064-7.872-8.672,0-4.864,2.56-8.864,7.9-8.864a9.869,9.869,0,0,1,4.224.9ZM38.688-8.48c0-5.5-3.168-8.8-8.224-8.8-5.024,0-8.224,3.3-8.224,8.8S25.44.384,30.464.384,38.688-2.976,38.688-8.48Zm-3.648,0c0,3.616-1.44,6.08-4.576,6.08-3.072,0-4.576-2.464-4.576-6.08,0-3.52,1.44-6.016,4.576-6.016S35.04-12,35.04-8.48ZM44.352-16.9V0H48V-9.344c0-3.712,2.112-5.152,4.128-5.152,2.784,0,3.552,1.792,3.552,4.736V0h3.648V-11.136a5.73,5.73,0,0,0-6.144-6.144,5.708,5.708,0,0,0-5.216,2.752H47.9V-16.9Zm31.936.576a13.711,13.711,0,0,0-5.184-.96c-3.1,0-6.24,1.536-6.24,5.024,0,2.368,1.632,3.9,4.992,5.056,2.656.9,3.84,1.536,3.84,2.816,0,1.472-1.28,1.984-3.1,1.984a14.287,14.287,0,0,1-5.248-1.216L64.544-.8A16.248,16.248,0,0,0,70.56.384c3.2,0,6.592-1.248,6.592-4.96,0-2.912-2.048-4.256-5.44-5.408-2.592-.9-3.392-1.44-3.392-2.624,0-1.376,1.376-1.888,2.752-1.888a10.851,10.851,0,0,1,4.384.9ZM98.272-8.48c0-5.5-3.168-8.8-8.224-8.8-5.024,0-8.224,3.3-8.224,8.8S85.024.384,90.048.384,98.272-2.976,98.272-8.48Zm-3.648,0c0,3.616-1.44,6.08-4.576,6.08-3.072,0-4.576-2.464-4.576-6.08,0-3.52,1.44-6.016,4.576-6.016S94.624-12,94.624-8.48Zm9.312-15.04V0h3.648V-23.52ZM128.608-7.392V-8.96c0-5.056-2.5-8.32-7.328-8.32-4.992,0-8.064,3.744-8.064,8.864s3.232,8.8,9.056,8.8a15.6,15.6,0,0,0,5.088-.768l-.48-2.72a12.823,12.823,0,0,1-4.288.7c-3.264,0-5.568-1.76-5.792-4.992Zm-7.328-7.264c2.368,0,3.968,1.728,3.936,4.512v.064H116.8C117.088-12.768,118.688-14.656,121.28-14.656Z" transform="translate(13118 -2010)" fill="#fff"/>
  </g>
</svg>
